<svg width="24" height="24" viewBox="0 0 24 24" xmlns="http://www.w3.org/2000/svg"><title>intagram</title><g fill="#FFF" fill-rule="evenodd"><path d="M12 22.8c5.965 0 10.8-4.835 10.8-10.8 0-5.965-4.835-10.8-10.8-10.8C6.035 1.2 1.2 6.035 1.2 12c0 5.965 4.835 10.8 10.8 10.8zm0 1.2C5.373 24 0 18.627 0 12S5.373 0 12 0s12 5.373 12 12-5.373 12-12 12z"/><path d="M12 7.082c1.602 0 1.792.006 2.425.035 1.626.074 2.386.845 2.46 2.459.028.633.034.822.034 2.425 0 1.602-.006 1.792-.035 2.424-.074 1.613-.832 2.386-2.459 2.46-.633.028-.822.034-2.425.034-1.602 0-1.792-.006-2.425-.035-1.63-.074-2.385-.849-2.459-2.46-.029-.632-.035-.822-.035-2.424 0-1.602.006-1.791.035-2.425.075-1.613.832-2.385 2.46-2.459.633-.028.822-.034 2.424-.034zM12 6c-1.63 0-1.834.007-2.473.036-2.18.1-3.39 1.309-3.49 3.49-.03.64-.037.845-.037 2.474 0 1.63.007 1.834.036 2.474.1 2.179 1.309 3.39 3.49 3.49.64.029.845.036 2.474.036 1.63 0 1.834-.007 2.474-.036 2.177-.1 3.391-1.309 3.49-3.49.029-.64.036-.845.036-2.474 0-1.63-.007-1.834-.036-2.473-.098-2.177-1.308-3.39-3.49-3.49C13.835 6.006 13.63 6 12 6zm0 2.919a3.081 3.081 0 1 0 0 6.162 3.081 3.081 0 0 0 0-6.162zM12 14a2 2 0 1 1 0-4 2 2 0 0 1 0 4zm3.203-5.922a.72.72 0 1 0 0 1.44.72.72 0 0 0 0-1.44z"/></g></svg>