<?xml version="1.0" encoding="UTF-8"?>
<svg width="390px" height="488px" viewBox="0 0 390 488" version="1.1" xmlns="http://www.w3.org/2000/svg" xmlns:xlink="http://www.w3.org/1999/xlink">
    <!-- Generator: Sketch 41.2 (35397) - http://www.bohemiancoding.com/sketch -->
    <title>calendar</title>
    <desc>Created with Sketch.</desc>
    <defs>
        <filter x="-50%" y="-50%" width="200%" height="200%" filterUnits="objectBoundingBox" id="filter-1">
            <feGaussianBlur stdDeviation="20" in="SourceGraphic"></feGaussianBlur>
        </filter>
        <filter x="-50%" y="-50%" width="200%" height="200%" filterUnits="objectBoundingBox" id="filter-2">
            <feGaussianBlur stdDeviation="20" in="SourceGraphic"></feGaussianBlur>
        </filter>
        <linearGradient x1="50%" y1="0%" x2="50%" y2="100%" id="linearGradient-3">
            <stop stop-color="#6D768C" offset="0%"></stop>
            <stop stop-color="#383F51" offset="100%"></stop>
        </linearGradient>
        <linearGradient x1="50%" y1="0%" x2="50%" y2="100%" id="linearGradient-4">
            <stop stop-color="#34BCFF" offset="0%"></stop>
            <stop stop-color="#149CE0" offset="100%"></stop>
        </linearGradient>
    </defs>
    <g id="Landing-page" stroke="none" stroke-width="1" fill="none" fill-rule="evenodd">
        <g id="Desktop-HD" transform="translate(-251.000000, -1260.000000)">
            <g id="calendar" transform="translate(270.000000, 1260.000000)">
                <rect id="Rectangle" fill-opacity="0.2" fill="#535B6F" filter="url(#filter-1)" x="25" y="288" width="303" height="72" rx="24"></rect>
                <rect id="Rectangle" fill-opacity="0.2" fill="#535B6F" filter="url(#filter-2)" x="24" y="372" width="303" height="72" rx="24"></rect>
                <rect id="Rectangle" fill="url(#linearGradient-3)" x="12" y="0" width="336" height="264" rx="6"></rect>
                <rect id="Rectangle" fill="#FFFFFF" x="12" y="276" width="336" height="72" rx="6"></rect>
                <text id="M" opacity="0.5" font-family="Europa-Regular, Europa" font-size="14" font-weight="normal" line-spacing="24" fill="#FFFFFF">
                    <tspan x="83.33" y="50">M</tspan>
                </text>
                <text id="T" font-family="Europa-Regular, Europa" font-size="14" font-weight="normal" line-spacing="24" fill="#FFFFFF">
                    <tspan x="131.402" y="50">T</tspan>
                </text>
                <text id="W" opacity="0.5" font-family="Europa-Regular, Europa" font-size="14" font-weight="normal" line-spacing="24" fill="#FFFFFF">
                    <tspan x="174.35" y="50">W</tspan>
                </text>
                <text id="2016" font-family="Europa-Regular, Europa" font-size="14" font-weight="normal" line-spacing="24" fill="#FFFFFF">
                    <tspan x="167.003" y="26">2016</tspan>
                </text>
                <g id="Group" transform="translate(96.000000, 15.000000)" stroke="#FFFFFF" stroke-linecap="round">
                    <path d="M1.08632901,9.01855379 L9.46713399,0.482548712" id="Line"></path>
                    <path d="M1.08632901,16.8935538 L9.46713399,8.35754871" id="Line" transform="translate(4.970455, 12.937500) scale(1, -1) translate(-4.970455, -12.937500) "></path>
                </g>
                <g id="Group" transform="translate(261.800000, 24.000000) scale(-1, 1) translate(-261.800000, -24.000000) translate(256.800000, 15.000000)" stroke="#FFFFFF" stroke-linecap="round">
                    <path d="M1.08632901,9.01855379 L9.46713399,0.482548712" id="Line"></path>
                    <path d="M1.08632901,16.8935538 L9.46713399,8.35754871" id="Line" transform="translate(4.970455, 12.937500) scale(1, -1) translate(-4.970455, -12.937500) "></path>
                </g>
                <text id="T" opacity="0.5" font-family="Europa-Regular, Europa" font-size="14" font-weight="normal" line-spacing="24" fill="#FFFFFF">
                    <tspan x="223.402" y="50">T</tspan>
                </text>
                <text id="F" opacity="0.5" font-family="Europa-Regular, Europa" font-size="14" font-weight="normal" line-spacing="24" fill="#FFFFFF">
                    <tspan x="269.339" y="50">F</tspan>
                </text>
                <text id="S" opacity="0.5" font-family="Europa-Regular, Europa" font-size="14" font-weight="normal" line-spacing="24" fill="#FFFFFF">
                    <tspan x="39.206" y="50">S</tspan>
                </text>
                <text id="S" opacity="0.5" font-family="Europa-Regular, Europa" font-size="14" font-weight="normal" line-spacing="24" fill="#FFFFFF">
                    <tspan x="315.206" y="50">S</tspan>
                </text>
                <text id="29" opacity="0.5" font-family="Europa-Regular, Europa" font-size="14" font-weight="normal" line-spacing="24" fill="#FFFFFF">
                    <tspan x="35.482" y="98">29</tspan>
                </text>
                <path d="M12.4949496,71.5 L111.5,71.5" id="Line" stroke="#FFFFFF" stroke-linecap="square" opacity="0.5"></path>
                <path d="M160.5,71.5 L347.5,71.5" id="Line" stroke="#FFFFFF" stroke-linecap="square" opacity="0.5"></path>
                <text id="30" opacity="0.5" font-family="Europa-Regular, Europa" font-size="14" font-weight="normal" line-spacing="24" fill="#FFFFFF">
                    <tspan x="81.048" y="98">30</tspan>
                </text>
                <text id="1" font-family="Europa-Regular, Europa" font-size="14" font-weight="normal" line-spacing="24" fill="#FFFFFF">
                    <tspan x="132.165" y="98">1</tspan>
                </text>
                <text id="DEC" font-family="Europa-Regular, Europa" font-size="14" font-weight="normal" line-spacing="24" letter-spacing="1" fill="#FFFFFF">
                    <tspan x="121.882" y="74">DE</tspan>
                    <tspan x="140.836" y="74">C</tspan>
                </text>
                <text id="2" font-family="Europa-Regular, Europa" font-size="14" font-weight="normal" line-spacing="24" fill="#FFFFFF">
                    <tspan x="177.276" y="98">2</tspan>
                </text>
                <text id="3" font-family="Europa-Regular, Europa" font-size="14" font-weight="normal" line-spacing="24" fill="#FFFFFF">
                    <tspan x="223.192" y="98">3</tspan>
                </text>
                <text id="4" font-family="Europa-Regular, Europa" font-size="14" font-weight="normal" line-spacing="24" fill="#FFFFFF">
                    <tspan x="269.066" y="98">4</tspan>
                </text>
                <text id="5" font-family="Europa-Regular, Europa" font-size="14" font-weight="normal" line-spacing="24" fill="#FFFFFF">
                    <tspan x="314.975" y="98">5</tspan>
                </text>
                <text id="6" font-family="Europa-Regular, Europa" font-size="14" font-weight="normal" line-spacing="24" fill="#FFFFFF">
                    <tspan x="40.206" y="134">6</tspan>
                </text>
                <text id="7" font-family="Europa-Regular, Europa" font-size="14" font-weight="normal" line-spacing="24" fill="#FFFFFF">
                    <tspan x="86.458" y="134">7</tspan>
                </text>
                <text id="8" font-family="Europa-Regular, Europa" font-size="14" font-weight="normal" line-spacing="24" fill="#FFFFFF">
                    <tspan x="132.136" y="134">8</tspan>
                </text>
                <text id="9" font-family="Europa-Regular, Europa" font-size="14" font-weight="normal" line-spacing="24" fill="#FFFFFF">
                    <tspan x="178.206" y="134">9</tspan>
                </text>
                <text id="10" font-family="Europa-Regular, Europa" font-size="14" font-weight="normal" line-spacing="24" fill="#FFFFFF">
                    <tspan x="221.021" y="134">10</tspan>
                </text>
                <text id="11" font-family="Europa-Regular, Europa" font-size="14" font-weight="normal" line-spacing="24" fill="#FFFFFF">
                    <tspan x="268.33" y="134">11</tspan>
                </text>
                <text id="12" font-family="Europa-Regular, Europa" font-size="14" font-weight="normal" line-spacing="24" fill="#FFFFFF">
                    <tspan x="313.441" y="134">12</tspan>
                </text>
                <text id="20" font-family="Europa-Regular, Europa" font-size="14" font-weight="normal" line-spacing="24" fill="#FFFFFF">
                    <tspan x="35.132" y="206">20</tspan>
                </text>
                <text id="21" font-family="Europa-Regular, Europa" font-size="14" font-weight="normal" line-spacing="24" fill="#FFFFFF">
                    <tspan x="82.441" y="206">21</tspan>
                </text>
                <text id="22" font-family="Europa-Regular, Europa" font-size="14" font-weight="normal" line-spacing="24" fill="#FFFFFF">
                    <tspan x="127.552" y="206">22</tspan>
                </text>
                <text id="23" font-family="Europa-Regular, Europa" font-size="14" font-weight="normal" line-spacing="24" fill="#FFFFFF">
                    <tspan x="173.468" y="206">23</tspan>
                </text>
                <text id="24" font-family="Europa-Regular, Europa" font-size="14" font-weight="normal" line-spacing="24" fill="#FFFFFF">
                    <tspan x="219.342" y="206">24</tspan>
                </text>
                <text id="25" font-family="Europa-Regular, Europa" font-size="14" font-weight="normal" line-spacing="24" fill="#FFFFFF">
                    <tspan x="265.251" y="206">25</tspan>
                </text>
                <text id="26" font-family="Europa-Regular, Europa" font-size="14" font-weight="normal" line-spacing="24" fill="#FFFFFF">
                    <tspan x="311.482" y="206">26</tspan>
                </text>
                <text id="27" font-family="Europa-Regular, Europa" font-size="14" font-weight="normal" line-spacing="24" fill="#FFFFFF">
                    <tspan x="35.734" y="242">27</tspan>
                </text>
                <text id="28" font-family="Europa-Regular, Europa" font-size="14" font-weight="normal" line-spacing="24" fill="#FFFFFF">
                    <tspan x="81.412" y="242">28</tspan>
                </text>
                <text id="29" font-family="Europa-Regular, Europa" font-size="14" font-weight="normal" line-spacing="24" fill="#FFFFFF">
                    <tspan x="127.482" y="242">29</tspan>
                </text>
                <text id="30" font-family="Europa-Regular, Europa" font-size="14" font-weight="normal" line-spacing="24" fill="#FFFFFF">
                    <tspan x="173.048" y="242">30</tspan>
                </text>
                <text id="31" font-family="Europa-Regular, Europa" font-size="14" font-weight="normal" line-spacing="24" fill="#FFFFFF">
                    <tspan x="220.357" y="242">31</tspan>
                </text>
                <text id="1" opacity="0.5" font-family="Europa-Regular, Europa" font-size="14" font-weight="normal" line-spacing="24" fill="#FFFFFF">
                    <tspan x="270.165" y="242">1</tspan>
                </text>
                <text id="2" opacity="0.5" font-family="Europa-Regular, Europa" font-size="14" font-weight="normal" line-spacing="24" fill="#FFFFFF">
                    <tspan x="315.276" y="242">2</tspan>
                </text>
                <text id="13" font-family="Europa-Regular, Europa" font-size="14" font-weight="normal" line-spacing="24" fill="#FFFFFF">
                    <tspan x="36.357" y="170">13</tspan>
                </text>
                <text id="14" font-family="Europa-Bold, Europa" font-size="18" font-weight="bold" line-spacing="24" fill="#FFFFFF">
                    <tspan x="79.667" y="175">14</tspan>
                </text>
                <text id="15" font-family="Europa-Regular, Europa" font-size="14" font-weight="normal" line-spacing="24" fill="#FFFFFF">
                    <tspan x="128.14" y="170">15</tspan>
                </text>
                <text id="17" font-family="Europa-Regular, Europa" font-size="14" font-weight="normal" line-spacing="24" fill="#FFFFFF">
                    <tspan x="220.623" y="170">17</tspan>
                </text>
                <text id="18" font-family="Europa-Regular, Europa" font-size="14" font-weight="normal" line-spacing="24" fill="#FFFFFF">
                    <tspan x="266.301" y="170">18</tspan>
                </text>
                <text id="19" font-family="Europa-Regular, Europa" font-size="14" font-weight="normal" line-spacing="24" fill="#FFFFFF">
                    <tspan x="312.371" y="170">19</tspan>
                </text>
                <text id="Echocardiography" font-family="Europa-Bold, Europa" font-size="18" font-weight="bold" line-spacing="24" fill="#535B6F">
                    <tspan x="36" y="307">Echocardiography</tspan>
                </text>
                <text id="St.-John’s-Hospital" font-family="Europa-Regular, Europa" font-size="14" font-weight="normal" line-spacing="24" fill="#858B99">
                    <tspan x="36" y="326">St. John’s Hospital</tspan>
                </text>
                <circle id="Oval-5" fill="url(#linearGradient-4)" cx="181" cy="168" r="18"></circle>
                <text id="16" font-family="Europa-Bold, Europa" font-size="14" font-weight="bold" line-spacing="24" fill="#FFFFFF">
                    <tspan x="173.944" y="170">16</tspan>
                </text>
                <circle id="Oval" fill="#FFFFFF" cx="175" cy="180" r="2"></circle>
                <circle id="Oval" fill="#FFFFFF" cx="181" cy="180" r="2"></circle>
                <circle id="Oval" fill="#FFFFFF" cx="187" cy="180" r="2"></circle>
                <circle id="Oval" fill="#F0E2A7" cx="178" cy="216" r="2"></circle>
                <circle id="Oval" fill="#F0E2A7" cx="89" cy="216" r="2"></circle>
                <circle id="Oval" fill="#53DD6C" cx="43" cy="180" r="2"></circle>
                <circle id="Oval" fill="#ED6A5A" cx="87" cy="144" r="2"></circle>
                <circle id="Oval" fill="#53DD6C" cx="93" cy="144" r="2"></circle>
                <circle id="Oval" fill="#53DD6C" cx="135" cy="108" r="2"></circle>
                <circle id="Oval" fill="#F0E2A7" cx="184" cy="216" r="2"></circle>
                <circle id="Oval" fill="#F0E2A7" opacity="0.5" cx="316" cy="252" r="2"></circle>
                <circle id="Oval" fill="#F0E2A7" opacity="0.5" cx="322" cy="252" r="2"></circle>
                <circle id="Oval" fill="#ED6A5A" cx="270" cy="108" r="2"></circle>
                <circle id="Oval" fill="#ED6A5A" cx="276" cy="108" r="2"></circle>
                <circle id="Oval" fill="#53DD6C" cx="320" cy="144" r="2"></circle>
                <circle id="Oval" fill="#F0E2A7" cx="86" cy="180" r="2"></circle>
                <circle id="Oval" fill="#F0E2A7" cx="92" cy="180" r="2"></circle>
                <circle id="Oval" fill="#F0E2A7" cx="147" cy="252" r="2"></circle>
                <circle id="Oval" fill="#F0E2A7" cx="153" cy="252" r="2"></circle>
                <circle id="Oval" fill="#F0E2A7" cx="159" cy="252" r="2"></circle>
                <rect id="Rectangle" fill="#FFFFFF" x="12" y="360" width="336" height="72" rx="6"></rect>
                <text id="Pulmonary-Function-T" font-family="Europa-Bold, Europa" font-size="18" font-weight="bold" line-spacing="24" fill="#535B6F">
                    <tspan x="36" y="391">Pulmonary Function Test</tspan>
                </text>
                <text id="St.-John’s-Hospital" font-family="Europa-Regular, Europa" font-size="14" font-weight="normal" line-spacing="24" fill="#858B99">
                    <tspan x="36" y="410">St. John’s Hospital</tspan>
                </text>
                <text id="01:00-PM" font-family="Europa-Regular, Europa" font-size="14" font-weight="normal" line-spacing="24" fill="#858B99">
                    <tspan x="279.51" y="410">01:00 PM</tspan>
                </text>
                <text id="01:00-PM" font-family="Europa-Regular, Europa" font-size="14" font-weight="normal" line-spacing="24" fill="#858B99">
                    <tspan x="279.51" y="326">01:00 PM</tspan>
                </text>
                <g id="Group-3" transform="translate(0.000000, 300.000000)">
                    <path d="M12,24 C18.627417,24 24,18.627417 24,12 C24,5.372583 18.627417,0 12,0 C5.372583,0 0,5.372583 0,12 C0,18.627417 5.372583,24 12,24 Z M11.9999484,8.06699697 C10.1636286,4.62938592 5,5.63292399 5,9.94043772 C5,12.9065068 8.24972607,15.9393935 11.9999484,20 C15.7507542,15.9393935 18.9998969,12.9065068 18.9998969,9.94043772 C18.9998969,5.61828773 13.8228517,4.65484028 11.9999484,8.06699697 Z" id="Combined-Shape" fill="#ED6A5A"></path>
                    <path d="M11.9999484,8.06699697 C10.1636286,4.62938592 5,5.63292399 5,9.94043772 C5,12.9065068 8.24972607,15.9393935 11.9999484,20 C15.7507542,15.9393935 18.9998969,12.9065068 18.9998969,9.94043772 C18.9998969,5.61828773 13.8228517,4.65484028 11.9999484,8.06699697 Z" id="Shape" fill="#FFFFFF"></path>
                </g>
                <path d="M12,408 C18.627417,408 24,402.627417 24,396 C24,389.372583 18.627417,384 12,384 C5.372583,384 0,389.372583 0,396 C0,402.627417 5.372583,408 12,408 Z M19.1742633,398.165956 C19.1742633,395.411433 16.2236671,390.929547 14.410797,390.929547 C13.5456558,390.929547 13.0898433,391.955742 12.8560702,393.322876 C12.7152647,393.151683 12.6326769,393.019551 12.5582125,392.928408 L12.5582125,389.416296 C12.5582125,389.075838 12.3172186,388.8 11.9990524,388.8 C11.6808863,388.8 11.4398923,389.075838 11.4398923,389.416296 L11.4398923,393.007012 C11.3654279,393.167114 11.2715576,393.313714 11.1564762,393.453562 C10.9267648,392.044473 10.4741114,390.977288 9.59182086,390.977288 C7.77849945,390.977288 4.82609809,395.459174 4.82609809,398.212732 C4.82609809,400.967737 4.48175657,403.2 6.29462668,403.2 C8.10704549,403.2 11.3888955,400.967737 11.3888955,398.212732 C11.3888955,397.24103 11.3884442,396.054734 11.3108207,394.926305 C11.5892725,394.719427 11.8451593,394.483132 12.0604292,394.209705 C12.2287639,394.408868 12.4377155,394.629731 12.689992,394.855417 C12.6110146,395.992043 12.6110146,397.18702 12.6110146,398.165956 C12.6110146,400.920478 15.8928646,403.154188 17.706186,403.154188 C19.5163483,403.154188 19.1742633,400.920478 19.1742633,398.165956 Z" id="Combined-Shape" fill="#53DD6C"></path>
            </g>
        </g>
    </g>
</svg>