<svg width="400" height="532" viewBox="0 0 400 532" xmlns="http://www.w3.org/2000/svg" xmlns:xlink="http://www.w3.org/1999/xlink"><title>recommended</title><defs><filter x="-50%" y="-50%" width="200%" height="200%" filterUnits="objectBoundingBox" id="d"><feGaussianBlur stdDeviation="20" in="SourceGraphic"/></filter><path id="a" d="M180 96h168v36H180z"/><mask id="e" x="0" y="0" width="168" height="36" fill="#fff"><use xlink:href="#a"/></mask><filter x="-50%" y="-50%" width="200%" height="200%" filterUnits="objectBoundingBox" id="f"><feGaussianBlur stdDeviation="20" in="SourceGraphic"/></filter><path id="b" d="M180 252h168v36H180z"/><mask id="g" x="0" y="0" width="168" height="36" fill="#fff"><use xlink:href="#b"/></mask><filter x="-50%" y="-50%" width="200%" height="200%" filterUnits="objectBoundingBox" id="h"><feGaussianBlur stdDeviation="20" in="SourceGraphic"/></filter><path id="c" d="M180 408h168v36H180z"/><mask id="i" x="0" y="0" width="168" height="36" fill="#fff"><use xlink:href="#c"/></mask></defs><g transform="translate(20 32)" fill="none" fill-rule="evenodd"><rect fill-opacity=".2" fill="#446691" filter="url(#d)" x="24" y="12" width="312" height="132" rx="24"/><rect fill="#FFF" x="12" width="336" height="96" rx="6"/><text font-family="Europa-Bold, Europa" font-size="18" font-weight="bold" fill="#535B6F"><tspan x="36" y="31">Pulmonary Function Test</tspan></text><text font-family="Europa-Regular, Europa" font-size="18" fill="#858B99"><tspan x="36" y="55">We can see that you are a smoker. </tspan> <tspan x="36" y="79">Surely you don’t need another...</tspan></text><path fill="#FFA69E" d="M12 96h168v36H12z"/><use stroke="#FFA69E" mask="url(#e)" stroke-width="4" fill="#FFF" xlink:href="#a"/><text font-family="Europa-Regular, Europa" font-size="18" fill="#FFF"><tspan x="68.595" y="121">Accept</tspan></text><text font-family="Europa-Regular, Europa" font-size="18" fill="#FFA69E"><tspan x="239" y="121">Ignore</tspan></text><path d="M12 48c6.627 0 12-5.373 12-12s-5.373-12-12-12S0 29.373 0 36s5.373 12 12 12zm0-15.933c-1.836-3.438-7-2.434-7 1.873 0 2.967 3.25 6 7 10.06 3.75-4.06 7-7.093 7-10.06 0-4.322-5.177-5.285-7-1.873z" fill="#858B99"/><path d="M12 32.067c-1.836-3.438-7-2.434-7 1.873 0 2.967 3.25 6 7 10.06 3.75-4.06 7-7.093 7-10.06 0-4.322-5.177-5.285-7-1.873z" fill="#FFF"/><rect fill-opacity=".2" fill="#446691" filter="url(#f)" x="24" y="168" width="312" height="132" rx="24"/><rect fill="#FFF" x="12" y="156" width="336" height="96" rx="6"/><text font-family="Europa-Bold, Europa" font-size="18" font-weight="bold" fill="#535B6F"><tspan x="36" y="187">Pulmonary Function Test</tspan></text><text font-family="Europa-Regular, Europa" font-size="18" fill="#858B99"><tspan x="36" y="211">We can see that you are a smoker. </tspan> <tspan x="36" y="235">Surely you don’t need another...</tspan></text><path fill="#FFA69E" d="M12 252h168v36H12z"/><use stroke="#FFA69E" mask="url(#g)" stroke-width="4" fill="#FFF" xlink:href="#b"/><text font-family="Europa-Regular, Europa" font-size="18" fill="#FFF"><tspan x="68.595" y="277">Accept</tspan></text><text font-family="Europa-Regular, Europa" font-size="18" fill="#FFA69E"><tspan x="239" y="277">Ignore</tspan></text><path d="M12 204c6.627 0 12-5.373 12-12s-5.373-12-12-12-12 5.373-12 12 5.373 12 12 12zm0-15.933c-1.836-3.438-7-2.434-7 1.873 0 2.967 3.25 6 7 10.06 3.75-4.06 7-7.093 7-10.06 0-4.322-5.177-5.285-7-1.873z" fill="#858B99"/><path d="M12 188.067c-1.836-3.438-7-2.434-7 1.873 0 2.967 3.25 6 7 10.06 3.75-4.06 7-7.093 7-10.06 0-4.322-5.177-5.285-7-1.873z" fill="#FFF"/><rect fill-opacity=".2" fill="#446691" filter="url(#h)" x="24" y="324" width="312" height="132" rx="24"/><rect fill="#FFF" x="12" y="312" width="336" height="96" rx="6"/><text font-family="Europa-Bold, Europa" font-size="18" font-weight="bold" fill="#535B6F"><tspan x="36" y="343">Pulmonary Function Test</tspan></text><text font-family="Europa-Regular, Europa" font-size="18" fill="#858B99"><tspan x="36" y="367">We can see that you are a smoker. </tspan> <tspan x="36" y="391">Surely you don’t need another...</tspan></text><path fill="#FFA69E" d="M12 408h168v36H12z"/><use stroke="#FFA69E" mask="url(#i)" stroke-width="4" fill="#FFF" xlink:href="#c"/><text font-family="Europa-Regular, Europa" font-size="18" fill="#FFF"><tspan x="68.595" y="433">Accept</tspan></text><text font-family="Europa-Regular, Europa" font-size="18" fill="#FFA69E"><tspan x="239" y="433">Ignore</tspan></text><g><path d="M12 360c6.627 0 12-5.373 12-12s-5.373-12-12-12-12 5.373-12 12 5.373 12 12 12zm0-15.933c-1.836-3.438-7-2.434-7 1.873 0 2.967 3.25 6 7 10.06 3.75-4.06 7-7.093 7-10.06 0-4.322-5.177-5.285-7-1.873z" fill="#858B99"/><path d="M12 344.067c-1.836-3.438-7-2.434-7 1.873 0 2.967 3.25 6 7 10.06 3.75-4.06 7-7.093 7-10.06 0-4.322-5.177-5.285-7-1.873z" fill="#FFF"/></g></g></svg>