<svg width="35" height="36" viewBox="0 0 35 36" xmlns="http://www.w3.org/2000/svg"><title>calendar</title><defs><linearGradient x1="50%" y1="0%" x2="50%" y2="100%" id="a"><stop stop-color="#34BCFF" offset="0%"/><stop stop-color="#149CE0" offset="100%"/></linearGradient></defs><g transform="translate(-666 -1356)" fill="url(#a)" fill-rule="evenodd"><path d="M667.8 1366.783v21.634c0 .976.808 1.783 1.795 1.783h27.01c.996 0 1.795-.797 1.795-1.783v-21.634c0-.976-.808-1.783-1.795-1.783h-27.01c-.996 0-1.795.797-1.795 1.783zm-1.8-7.2a3.586 3.586 0 0 1 3.595-3.583h27.01a3.597 3.597 0 0 1 3.595 3.583v28.834a3.586 3.586 0 0 1-3.595 3.583h-27.01a3.597 3.597 0 0 1-3.595-3.583v-28.834z"/><path d="M683.1 1370.4a.9.9 0 1 0 0-1.8.9.9 0 0 0 0 1.8zm-5.4 0a.9.9 0 1 0 0-1.8.9.9 0 0 0 0 1.8zm10.8 0a.9.9 0 1 0 0-1.8.9.9 0 0 0 0 1.8zm5.4 0a.9.9 0 1 0 0-1.8.9.9 0 0 0 0 1.8zm-21.6 5.4a.9.9 0 1 0 0-1.8.9.9 0 0 0 0 1.8zm5.4 0a.9.9 0 1 0 0-1.8.9.9 0 0 0 0 1.8zm5.4 0a.9.9 0 1 0 0-1.8.9.9 0 0 0 0 1.8zm5.4 0a.9.9 0 1 0 0-1.8.9.9 0 0 0 0 1.8zm5.4 0a.9.9 0 1 0 0-1.8.9.9 0 0 0 0 1.8zm-21.6 5.4a.9.9 0 1 0 0-1.8.9.9 0 0 0 0 1.8zm5.4 0a.9.9 0 1 0 0-1.8.9.9 0 0 0 0 1.8zm5.4 0a.9.9 0 1 0 0-1.8.9.9 0 0 0 0 1.8zm5.4 1.8a2.7 2.7 0 1 0 0-5.4 2.7 2.7 0 0 0 0 5.4zm5.4-1.8a.9.9 0 1 0 0-1.8.9.9 0 0 0 0 1.8zm-21.6 5.4a.9.9 0 1 0 0-1.8.9.9 0 0 0 0 1.8zm5.4 0a.9.9 0 1 0 0-1.8.9.9 0 0 0 0 1.8zm5.4 0a.9.9 0 1 0 0-1.8.9.9 0 0 0 0 1.8z"/></g></svg>