<svg width="36" height="36" viewBox="0 0 36 36" xmlns="http://www.w3.org/2000/svg"><title>heart</title><defs><linearGradient x1="50%" y1="0%" x2="50%" y2="100%" id="a"><stop stop-color="#34BCFF" offset="0%"/><stop stop-color="#149CE0" offset="100%"/></linearGradient></defs><g transform="translate(-666 -816)" fill="url(#a)" fill-rule="evenodd"><path d="M684 850.2c8.947 0 16.2-7.253 16.2-16.2s-7.253-16.2-16.2-16.2-16.2 7.253-16.2 16.2 7.253 16.2 16.2 16.2zm0 1.8c-9.941 0-18-8.059-18-18s8.059-18 18-18 18 8.059 18 18-8.059 18-18 18z"/><path d="M684 828.823c-2.597-4.861-9.9-3.442-9.9 2.65 0 4.195 4.596 8.484 9.9 14.227 5.305-5.743 9.9-10.032 9.9-14.227 0-6.113-7.322-7.475-9.9-2.65z"/></g></svg>