<?xml version="1.0" encoding="UTF-8"?>
<svg width="15px" height="18px" viewBox="0 0 15 18" version="1.1" xmlns="http://www.w3.org/2000/svg" xmlns:xlink="http://www.w3.org/1999/xlink">
    <!-- Generator: Sketch 41.2 (35397) - http://www.bohemiancoding.com/sketch -->
    <title>apple</title>
    <desc>Created with Sketch.</desc>
    <defs></defs>
    <g id="Landing-page" stroke="none" stroke-width="1" fill="none" fill-rule="evenodd">
        <g id="Desktop-HD" transform="translate(-467.000000, -483.000000)" fill="#FFFFFF">
            <g id="apple" transform="translate(467.000000, 483.000000)">
                <path d="M12.5501538,9.54276923 C12.5300769,7.31146154 14.3771538,6.22592308 14.4616154,6.17538462 C13.4155385,4.65023077 11.7941538,4.44184615 11.2243846,4.42523077 C9.86261538,4.28192308 8.54169231,5.24007692 7.848,5.24007692 C7.14046154,5.24007692 6.07223077,4.43907692 4.92092308,4.46261538 C3.43938462,4.48546154 2.05338462,5.34323077 1.29323077,6.67523077 C-0.275538462,9.39115385 0.894461538,13.3823077 2.39746154,15.5776154 C3.14930769,16.6527692 4.02784615,17.8532308 5.17776923,17.811 C6.30276923,17.7646154 6.723,17.0937692 8.08061538,17.0937692 C9.42576923,17.0937692 9.82038462,17.811 10.9931538,17.784 C12.2005385,17.7646154 12.9606923,16.704 13.6862308,15.6191538 C14.5550769,14.3868462 14.904,13.1732308 14.9178462,13.1109231 C14.8894615,13.1012308 12.573,12.2171538 12.5501538,9.54276923 Z" id="Shape"></path>
                <path d="M10.3347692,2.98107692 C10.9398462,2.22438462 11.3538462,1.19492308 11.2389231,0.150230769 C10.3631538,0.189 9.26792308,0.756 8.63723077,1.49607692 C8.07923077,2.14823077 7.58076923,3.21715385 7.70953846,4.22238462 C8.69330769,4.29576923 9.70338462,3.726 10.3347692,2.98107692 Z" id="Shape"></path>
            </g>
        </g>
    </g>
</svg>