<svg width="135" height="40" viewBox="0 0 135 40" xmlns="http://www.w3.org/2000/svg"><title>btn-apple</title><g fill="none" fill-rule="evenodd" opacity=".4"><path d="M130.197 40H4.729A4.74 4.74 0 0 1 0 35.267V4.726A4.733 4.733 0 0 1 4.729 0h125.468C132.803 0 135 2.12 135 4.726v30.541c0 2.605-2.197 4.733-4.803 4.733z" fill="#A6A6A6"/><path d="M130.198 39.098H4.729a3.835 3.835 0 0 1-3.839-3.83V4.725A3.84 3.84 0 0 1 4.729.89h125.468a3.834 3.834 0 0 1 3.834 3.835l.001 30.543a3.83 3.83 0 0 1-3.834 3.83z" fill="#000"/><path d="M30.128 19.784c-.029-3.223 2.639-4.791 2.761-4.864-1.511-2.203-3.853-2.504-4.676-2.528-1.967-.207-3.875 1.177-4.877 1.177-1.022 0-2.565-1.157-4.228-1.123-2.14.033-4.142 1.272-5.24 3.196-2.266 3.923-.576 9.688 1.595 12.859 1.086 1.553 2.355 3.287 4.016 3.226 1.625-.067 2.232-1.036 4.193-1.036 1.943 0 2.513 1.036 4.207.997 1.744-.028 2.842-1.56 3.89-3.127 1.255-1.78 1.759-3.533 1.779-3.623-.041-.014-3.387-1.291-3.42-5.154zM26.928 10.306c.874-1.093 1.472-2.58 1.306-4.089-1.265.056-2.847.875-3.758 1.944-.806.942-1.526 2.486-1.34 3.938 1.421.106 2.88-.717 3.792-1.793zM53.645 31.504h-2.271l-1.244-3.909h-4.324l-1.185 3.909H42.41l4.284-13.308h2.646l4.305 13.308zm-3.89-5.549L48.63 22.48c-.119-.355-.342-1.191-.671-2.507h-.04a96.75 96.75 0 0 1-.632 2.507l-1.105 3.475h3.573zM64.662 26.588c0 1.632-.441 2.922-1.323 3.869-.79.843-1.771 1.264-2.942 1.264-1.264 0-2.172-.454-2.725-1.362h-.04v5.055H55.5V25.067c0-1.026-.027-2.079-.079-3.159h1.875l.119 1.521h.04c.711-1.146 1.79-1.718 3.238-1.718 1.132 0 2.077.447 2.833 1.342.758.896 1.136 2.074 1.136 3.535zm-2.172.078c0-.934-.21-1.704-.632-2.31-.461-.632-1.08-.948-1.856-.948-.526 0-1.004.176-1.431.523-.428.35-.708.807-.839 1.373-.066.264-.099.48-.099.65v1.6c0 .698.214 1.287.642 1.768.428.481.984.721 1.668.721.803 0 1.428-.31 1.875-.928.448-.619.672-1.435.672-2.449zM75.699 26.588c0 1.632-.441 2.922-1.324 3.869-.789.843-1.77 1.264-2.941 1.264-1.264 0-2.172-.454-2.724-1.362h-.04v5.055h-2.132V25.067c0-1.026-.027-2.079-.079-3.159h1.875l.119 1.521h.04c.71-1.146 1.789-1.718 3.238-1.718 1.131 0 2.076.447 2.834 1.342.755.896 1.134 2.074 1.134 3.535zm-2.172.078c0-.934-.211-1.704-.633-2.31-.461-.632-1.078-.948-1.855-.948a2.22 2.22 0 0 0-1.432.523c-.428.35-.707.807-.838 1.373-.065.264-.099.48-.099.65v1.6c0 .698.214 1.287.64 1.768.428.48.984.721 1.67.721.803 0 1.428-.31 1.875-.928.448-.619.672-1.435.672-2.449zM88.039 27.772c0 1.132-.393 2.053-1.182 2.764-.867.777-2.074 1.165-3.625 1.165-1.432 0-2.58-.276-3.449-.829l.494-1.777c.936.566 1.963.85 3.082.85.803 0 1.428-.182 1.877-.544.447-.362.67-.848.67-1.454 0-.54-.184-.995-.553-1.364-.367-.369-.98-.712-1.836-1.029-2.33-.869-3.494-2.142-3.494-3.816 0-1.094.408-1.991 1.225-2.689.814-.699 1.9-1.048 3.258-1.048 1.211 0 2.217.211 3.02.632l-.533 1.738c-.75-.408-1.598-.612-2.547-.612-.75 0-1.336.185-1.756.553a1.58 1.58 0 0 0-.533 1.205c0 .526.203.961.611 1.303.355.316 1 .658 1.936 1.027 1.145.461 1.986 1 2.527 1.618.539.616.808 1.387.808 2.307zM95.088 23.508h-2.35v4.659c0 1.185.414 1.777 1.244 1.777.381 0 .697-.033.947-.099l.059 1.619c-.42.157-.973.236-1.658.236-.842 0-1.5-.257-1.975-.77-.473-.514-.711-1.376-.711-2.587v-4.837h-1.4v-1.6h1.4v-1.757l2.094-.632v2.389h2.35v1.602zM105.691 26.627c0 1.475-.422 2.686-1.264 3.633-.883.975-2.055 1.461-3.516 1.461-1.408 0-2.529-.467-3.365-1.401-.836-.934-1.254-2.113-1.254-3.534 0-1.487.43-2.705 1.293-3.652.861-.948 2.023-1.422 3.484-1.422 1.408 0 2.541.467 3.396 1.402.818.907 1.226 2.078 1.226 3.513zm-2.212.069c0-.885-.189-1.644-.572-2.277-.447-.766-1.086-1.148-1.914-1.148-.857 0-1.508.383-1.955 1.148-.383.634-.572 1.405-.572 2.317 0 .885.189 1.644.572 2.276.461.766 1.105 1.148 1.936 1.148.814 0 1.453-.39 1.914-1.168.393-.645.591-1.412.591-2.296zM112.621 23.783a3.702 3.702 0 0 0-.672-.059c-.75 0-1.33.283-1.738.85-.355.5-.533 1.132-.533 1.895v5.035h-2.131l.02-6.574c0-1.106-.027-2.113-.08-3.021h1.857l.078 1.836h.059c.225-.631.58-1.139 1.066-1.52a2.578 2.578 0 0 1 1.541-.514c.197 0 .375.014.533.039v2.033zM122.156 26.252a5 5 0 0 1-.078.967h-6.396c.025.948.334 1.673.928 2.173.539.447 1.236.671 2.092.671.947 0 1.811-.151 2.588-.454l.334 1.48c-.908.396-1.98.593-3.217.593-1.488 0-2.656-.438-3.506-1.313-.848-.875-1.273-2.05-1.273-3.524 0-1.447.395-2.652 1.186-3.613.828-1.026 1.947-1.539 3.355-1.539 1.383 0 2.43.513 3.141 1.539.563.815.846 1.823.846 3.02zm-2.033-.553c.014-.632-.125-1.178-.414-1.639-.369-.593-.936-.889-1.699-.889-.697 0-1.264.289-1.697.869-.355.461-.566 1.014-.631 1.658h4.441v.001zM43.264 11.352c.022.8.58 1.771 2.215 1.771 1.313 0 2.285-.646 2.285-1.824 0-.997-.668-1.424-1.578-1.652l-1.002-.255c-.567-.136-.84-.43-.84-.835 0-.593.497-.932 1.21-.932.799 0 1.212.436 1.26.972h.875c-.022-1.139-1.015-1.732-2.123-1.732-1.129 0-2.13.62-2.13 1.758 0 .958.693 1.415 1.44 1.6l1.011.255c.655.162.963.421.963.896 0 .602-.493.984-1.292.984-.88 0-1.35-.461-1.402-1.006h-.892zm7.378-3.063c-1.323 0-2.039.94-2.039 2.193v.387c0 1.287.716 2.21 2.04 2.21 1.317 0 2.025-.923 2.025-2.21v-.391c0-1.253-.712-2.189-2.026-2.189zm-.004.73c.751 0 1.138.593 1.138 1.48v.356c0 .88-.382 1.486-1.138 1.486-.752 0-1.143-.611-1.143-1.486V10.5c0-.884.391-1.481 1.143-1.481zm4.979-.73c-1.323 0-2.04.94-2.04 2.193v.387c0 1.287.717 2.21 2.04 2.21 1.318 0 2.026-.923 2.026-2.21v-.391c0-1.253-.712-2.189-2.026-2.189zm-.005.73c.752 0 1.138.593 1.138 1.48v.356c0 .88-.382 1.486-1.138 1.486-.751 0-1.142-.611-1.142-1.486V10.5c0-.884.39-1.481 1.142-1.481zM58.742 13h.883v-2.786c0-.62.338-1.138 1.067-1.138.616 0 1.06.36 1.06 1.116V13h.883v-2.975c0-1.13-.69-1.732-1.64-1.732-.76 0-1.186.405-1.349.708h-.03v-.633h-.875V13zm8.753-4.71c-1.323 0-2.039.94-2.039 2.192v.387c0 1.287.716 2.21 2.04 2.21 1.317 0 2.025-.923 2.025-2.21v-.391c0-1.253-.712-2.189-2.026-2.189zm-.004.729c.751 0 1.138.593 1.138 1.48v.356c0 .88-.382 1.486-1.138 1.486-.752 0-1.143-.611-1.143-1.486V10.5c0-.884.391-1.481 1.143-1.481zM70.62 13h.883v-2.786c0-.62.338-1.138 1.068-1.138.615 0 1.059.36 1.059 1.116V13h.883v-2.975c0-1.13-.69-1.732-1.639-1.732-.76 0-1.186.405-1.35.708h-.03v-.633h-.874V13zm7.215-4.632h-.641v.72h.633V11.7c0 .923.277 1.336 1.393 1.336.18 0 .356-.017.43-.03v-.69a2.89 2.89 0 0 1-.21.008c-.541 0-.73-.14-.73-.668V9.09h.91v-.72h-.91V7.225h-.875v1.142zM80.67 13h.888v-2.786c0-.62.334-1.138 1.067-1.138.62 0 1.06.36 1.06 1.116V13h.887v-2.975c0-1.13-.694-1.732-1.643-1.732-.756 0-1.178.405-1.34.708h-.031V6.685h-.888V13zm6.921.08c1.099 0 1.705-.63 1.86-1.385h-.858c-.132.413-.474.668-.984.668-.699 0-1.13-.554-1.13-1.376v-.096h3.028v-.44c0-1.292-.725-2.162-1.95-2.162-1.223 0-1.96.848-1.96 2.118v.488c0 1.35.768 2.184 1.994 2.184zm-1.112-2.84v-.013c0-.685.422-1.23 1.082-1.23.646 0 1.072.54 1.072 1.23v.013h-2.154z" fill="#FFF"/></g></svg>