<?xml version="1.0" encoding="UTF-8"?>
<svg width="35px" height="36px" viewBox="0 0 35 36" version="1.1" xmlns="http://www.w3.org/2000/svg" xmlns:xlink="http://www.w3.org/1999/xlink">
    <!-- Generator: Sketch 41.2 (35397) - http://www.bohemiancoding.com/sketch -->
    <title>calendar</title>
    <desc>Created with Sketch.</desc>
    <defs>
        <linearGradient x1="50%" y1="0%" x2="50%" y2="100%" id="linearGradient-1">
            <stop stop-color="#34BCFF" offset="0%"></stop>
            <stop stop-color="#149CE0" offset="100%"></stop>
        </linearGradient>
    </defs>
    <g id="Landing-page" stroke="none" stroke-width="1" fill="none" fill-rule="evenodd">
        <g id="Desktop-HD" transform="translate(-666.000000, -1356.000000)" fill="url(#linearGradient-1)">
            <g id="calendar" transform="translate(666.000000, 1356.000000)">
                <path d="M1.8,10.7834312 L1.8,32.4165688 C1.8,33.3930213 2.60773029,34.2 3.59535943,34.2 L30.6046406,34.2 C31.6010094,34.2 32.4,33.4027364 32.4,32.4165688 L32.4,10.7834312 C32.4,9.80697872 31.5922697,9 30.6046406,9 L3.59535943,9 C2.59899057,9 1.8,9.79726364 1.8,10.7834312 Z M0,3.58343124 C0,1.60435682 1.60366571,0 3.59535943,0 L30.6046406,0 C32.5903028,0 34.2,1.61678229 34.2,3.58343124 L34.2,32.4165688 C34.2,34.3956432 32.5963343,36 30.6046406,36 L3.59535943,36 C1.60969725,36 0,34.3832177 0,32.4165688 L0,3.58343124 Z" id="Rectangle-4"></path>
                <path d="M17.1,14.4 C17.5970563,14.4 18,13.9970563 18,13.5 C18,13.0029437 17.5970563,12.6 17.1,12.6 C16.6029437,12.6 16.2,13.0029437 16.2,13.5 C16.2,13.9970563 16.6029437,14.4 17.1,14.4 Z M11.7,14.4 C12.1970563,14.4 12.6,13.9970563 12.6,13.5 C12.6,13.0029437 12.1970563,12.6 11.7,12.6 C11.2029437,12.6 10.8,13.0029437 10.8,13.5 C10.8,13.9970563 11.2029437,14.4 11.7,14.4 Z M22.5,14.4 C22.9970563,14.4 23.4,13.9970563 23.4,13.5 C23.4,13.0029437 22.9970563,12.6 22.5,12.6 C22.0029437,12.6 21.6,13.0029437 21.6,13.5 C21.6,13.9970563 22.0029437,14.4 22.5,14.4 Z M27.9,14.4 C28.3970563,14.4 28.8,13.9970563 28.8,13.5 C28.8,13.0029437 28.3970563,12.6 27.9,12.6 C27.4029437,12.6 27,13.0029437 27,13.5 C27,13.9970563 27.4029437,14.4 27.9,14.4 Z M6.3,19.8 C6.79705627,19.8 7.2,19.3970563 7.2,18.9 C7.2,18.4029437 6.79705627,18 6.3,18 C5.80294373,18 5.4,18.4029437 5.4,18.9 C5.4,19.3970563 5.80294373,19.8 6.3,19.8 Z M11.7,19.8 C12.1970563,19.8 12.6,19.3970563 12.6,18.9 C12.6,18.4029437 12.1970563,18 11.7,18 C11.2029437,18 10.8,18.4029437 10.8,18.9 C10.8,19.3970563 11.2029437,19.8 11.7,19.8 Z M17.1,19.8 C17.5970563,19.8 18,19.3970563 18,18.9 C18,18.4029437 17.5970563,18 17.1,18 C16.6029437,18 16.2,18.4029437 16.2,18.9 C16.2,19.3970563 16.6029437,19.8 17.1,19.8 Z M22.5,19.8 C22.9970563,19.8 23.4,19.3970563 23.4,18.9 C23.4,18.4029437 22.9970563,18 22.5,18 C22.0029437,18 21.6,18.4029437 21.6,18.9 C21.6,19.3970563 22.0029437,19.8 22.5,19.8 Z M27.9,19.8 C28.3970563,19.8 28.8,19.3970563 28.8,18.9 C28.8,18.4029437 28.3970563,18 27.9,18 C27.4029437,18 27,18.4029437 27,18.9 C27,19.3970563 27.4029437,19.8 27.9,19.8 Z M6.3,25.2 C6.79705627,25.2 7.2,24.7970563 7.2,24.3 C7.2,23.8029437 6.79705627,23.4 6.3,23.4 C5.80294373,23.4 5.4,23.8029437 5.4,24.3 C5.4,24.7970563 5.80294373,25.2 6.3,25.2 Z M11.7,25.2 C12.1970563,25.2 12.6,24.7970563 12.6,24.3 C12.6,23.8029437 12.1970563,23.4 11.7,23.4 C11.2029437,23.4 10.8,23.8029437 10.8,24.3 C10.8,24.7970563 11.2029437,25.2 11.7,25.2 Z M17.1,25.2 C17.5970563,25.2 18,24.7970563 18,24.3 C18,23.8029437 17.5970563,23.4 17.1,23.4 C16.6029437,23.4 16.2,23.8029437 16.2,24.3 C16.2,24.7970563 16.6029437,25.2 17.1,25.2 Z M22.5,27 C23.9911688,27 25.2,25.7911688 25.2,24.3 C25.2,22.8088312 23.9911688,21.6 22.5,21.6 C21.0088312,21.6 19.8,22.8088312 19.8,24.3 C19.8,25.7911688 21.0088312,27 22.5,27 Z M27.9,25.2 C28.3970563,25.2 28.8,24.7970563 28.8,24.3 C28.8,23.8029437 28.3970563,23.4 27.9,23.4 C27.4029437,23.4 27,23.8029437 27,24.3 C27,24.7970563 27.4029437,25.2 27.9,25.2 Z M6.3,30.6 C6.79705627,30.6 7.2,30.1970563 7.2,29.7 C7.2,29.2029437 6.79705627,28.8 6.3,28.8 C5.80294373,28.8 5.4,29.2029437 5.4,29.7 C5.4,30.1970563 5.80294373,30.6 6.3,30.6 Z M11.7,30.6 C12.1970563,30.6 12.6,30.1970563 12.6,29.7 C12.6,29.2029437 12.1970563,28.8 11.7,28.8 C11.2029437,28.8 10.8,29.2029437 10.8,29.7 C10.8,30.1970563 11.2029437,30.6 11.7,30.6 Z M17.1,30.6 C17.5970563,30.6 18,30.1970563 18,29.7 C18,29.2029437 17.5970563,28.8 17.1,28.8 C16.6029437,28.8 16.2,29.2029437 16.2,29.7 C16.2,30.1970563 16.6029437,30.6 17.1,30.6 Z" id="Combined-Shape"></path>
            </g>
        </g>
    </g>
</svg>