<svg width="36" height="36" viewBox="0 0 36 36" xmlns="http://www.w3.org/2000/svg"><title>news</title><defs><linearGradient x1="50%" y1="0%" x2="50%" y2="100%" id="a"><stop stop-color="#34BCFF" offset="0%"/><stop stop-color="#149CE0" offset="100%"/></linearGradient></defs><path d="M712.799 3377.709v.888a5.397 5.397 0 0 1-1.371 3.6h19.35l1.819-.006c1.845 0 3.596-1.738 3.596-3.594v-1.801l.004-26.996h-23.398v5.4h-1.8v-7.2h26.997v30.597a5.398 5.398 0 0 1-5.4 5.403h-1.818l-23.18-.004a5.398 5.398 0 0 1-5.599-5.4l.001-23.397h10.799v22.51zm-1.8-.888h-.003v1.776c0 1.856-1.752 3.594-3.597 3.594-1.844 0-3.596-1.738-3.596-3.594l-.003-1.776V3357h7.2v19.822zm5.4-23.422h8.999v9h-9v-9zm10.798 0h5.4v1.8h-5.4v-1.8zm0 3.6h5.4v1.8h-5.4v-1.8zm-10.798 17.998h12.598v1.8H716.4v-1.8zm10.798-14.398h5.4v1.8h-5.4v-1.8zm-10.798 3.6h16.198v1.8h-16.198v-1.8zm0 3.599h16.198v1.8h-16.198v-1.8zm0 3.6h16.198v1.8h-16.198v-1.8z" transform="translate(-702 -3348)" fill="url(#a)" fill-rule="evenodd"/></svg>