<?xml version="1.0" encoding="UTF-8"?>
<svg width="36px" height="36px" viewBox="0 0 36 36" version="1.1" xmlns="http://www.w3.org/2000/svg" xmlns:xlink="http://www.w3.org/1999/xlink">
    <!-- Generator: Sketch 41.2 (35397) - http://www.bohemiancoding.com/sketch -->
    <title>logo</title>
    <desc>Created with Sketch.</desc>
    <defs></defs>
    <g id="Landing-page" stroke="none" stroke-width="1" fill="none" fill-rule="evenodd">
        <g id="Desktop-HD" transform="translate(-282.000000, -108.000000)" fill="#FFFFFF">
            <path d="M300,144 C309.941125,144 318,135.941125 318,126 C318,116.058875 309.941125,108 300,108 C290.058875,108 282,116.058875 282,126 C282,135.941125 290.058875,144 300,144 Z M298.955117,137.974449 C298.942019,137.971802 298.928914,137.969108 298.915802,137.966367 C297.728935,137.718262 296.521058,137.101738 295.313195,136.233134 C294.778095,135.84833 294.277767,135.43807 293.823767,135.0274 C293.548701,134.778586 293.346892,134.58152 293.231242,134.461423 C292.958859,134.178568 292.865122,133.789333 292.947399,133.433278 C292.004661,132.562779 291.157702,131.594444 290.412694,130.544987 C288.557998,127.932367 287.478261,124.950263 287.478261,122.799797 C287.478261,119.462885 288.930936,117.114682 291.223735,116.265087 C293.0655,115.582622 295.12819,116.027046 296.497046,117.367354 C296.841375,117.34502 297.191283,117.481887 297.429092,117.767257 L298.174342,118.661558 C298.187306,118.677115 298.199776,118.692919 298.211753,118.708953 C298.731784,118.893638 299.104167,119.390034 299.104167,119.973405 C299.104167,120.714267 298.503579,121.314855 297.762717,121.314855 C297.048578,121.314855 296.464777,120.756815 296.423589,120.053009 L295.71154,119.19855 C295.444998,118.8787 295.38735,118.453974 295.523532,118.090068 C294.484835,117.173008 292.985016,116.884076 291.638048,117.383194 C289.838813,118.0499 288.670662,119.938179 288.670662,122.799797 C288.670662,124.685031 289.665434,127.432471 291.385004,129.854746 C292.092994,130.852057 292.898753,131.770522 293.796505,132.594033 C294.163376,132.51378 294.562087,132.620251 294.841687,132.910601 C294.858603,132.928167 294.898182,132.968086 294.958629,133.027113 C295.063496,133.129516 295.185759,133.244679 295.323577,133.369343 C295.719206,133.727213 296.156142,134.085493 296.618509,134.417992 C297.59522,135.120369 298.543738,135.604512 299.373278,135.77792 C299.594333,135.824129 299.803056,135.847238 299.998468,135.847238 C300.19388,135.847238 300.402603,135.824129 300.623658,135.77792 C301.453198,135.604512 302.401716,135.120369 303.378427,134.417992 C303.840794,134.085493 304.27773,133.727213 304.673358,133.369343 C304.811176,133.244679 304.933439,133.129516 305.038307,133.027113 C305.098754,132.968086 305.138333,132.928167 305.155248,132.910601 C305.434849,132.620251 305.83356,132.51378 306.200431,132.594033 C307.098183,131.770522 307.903942,130.852057 308.611932,129.854746 C310.331502,127.432471 311.326274,124.685031 311.326274,122.799797 C311.326274,119.938179 310.158123,118.0499 308.358887,117.383194 C307.011919,116.884076 305.512101,117.173008 304.473404,118.090068 C304.609586,118.453974 304.551938,118.8787 304.285396,119.19855 L303.573347,120.053009 C303.532158,120.756815 302.948357,121.314855 302.234219,121.314855 C301.493356,121.314855 300.892768,120.714267 300.892768,119.973405 C300.892768,119.390034 301.265152,118.893638 301.785182,118.708953 C301.79716,118.692919 301.809629,118.677115 301.822593,118.661558 L302.567844,117.767257 C302.805652,117.481887 303.15556,117.34502 303.49989,117.367354 C304.868746,116.027046 306.931436,115.582622 308.773201,116.265087 C311.066,117.114682 312.518675,119.462885 312.518675,122.799797 C312.518675,124.950263 311.438937,127.932367 309.584242,130.544987 C308.839234,131.594444 307.992274,132.562779 307.049537,133.433278 C307.131813,133.789333 307.038077,134.178568 306.765694,134.461423 C306.650043,134.58152 306.448235,134.778586 306.173169,135.0274 C305.719168,135.43807 305.218841,135.84833 304.68374,136.233134 C303.513083,137.074983 302.342412,137.680042 301.190868,137.942395 L301.190868,138.308755 C301.190868,138.92614 300.690379,139.42663 300.072993,139.42663 C299.455607,139.42663 298.955117,138.92614 298.955117,138.308755 L298.955117,137.974449 L298.955117,137.974449 Z" id="logo"></path>
        </g>
    </g>
</svg>