<svg width="400" height="532" viewBox="0 0 400 532" xmlns="http://www.w3.org/2000/svg" xmlns:xlink="http://www.w3.org/1999/xlink"><title>recommended</title><defs><filter x="-50%" y="-50%" width="200%" height="200%" filterUnits="objectBoundingBox" id="d"><feGaussianBlur stdDeviation="20" in="SourceGraphic"/></filter><path id="a" d="M180 96h168v36H180z"/><mask id="e" x="0" y="0" width="168" height="36" fill="#fff"><use xlink:href="#a"/></mask><filter x="-50%" y="-50%" width="200%" height="200%" filterUnits="objectBoundingBox" id="f"><feGaussianBlur stdDeviation="20" in="SourceGraphic"/></filter><path id="b" d="M180 252h168v36H180z"/><mask id="g" x="0" y="0" width="168" height="36" fill="#fff"><use xlink:href="#b"/></mask><filter x="-50%" y="-50%" width="200%" height="200%" filterUnits="objectBoundingBox" id="h"><feGaussianBlur stdDeviation="20" in="SourceGraphic"/></filter><path id="c" d="M180 408h168v36H180z"/><mask id="i" x="0" y="0" width="168" height="36" fill="#fff"><use xlink:href="#c"/></mask></defs><g transform="translate(20 32)" fill="none" fill-rule="evenodd"><rect fill-opacity=".2" fill="#446691" filter="url(#d)" x="24" y="12" width="312" height="132" rx="24"/><rect fill="#FFF" x="12" width="336" height="96" rx="6"/><text font-family="Europa-Bold, Europa" font-size="18" font-weight="bold" fill="#535B6F"><tspan x="36" y="31">Echocardiography</tspan></text><text font-family="Europa-Regular, Europa" font-size="18" fill="#858B99"><tspan x="36" y="55">Your blood pressure has been pretty </tspan> <tspan x="36" y="79">high lately. How about you…</tspan></text><path fill="#FFA69E" d="M12 96h168v36H12z"/><use stroke="#FFA69E" mask="url(#e)" stroke-width="4" fill="#FFF" xlink:href="#a"/><text font-family="Europa-Regular, Europa" font-size="18" fill="#FFF"><tspan x="68.595" y="121">Accept</tspan></text><text font-family="Europa-Regular, Europa" font-size="18" fill="#FFA69E"><tspan x="239" y="121">Ignore</tspan></text><path d="M12 48c6.627 0 12-5.373 12-12s-5.373-12-12-12S0 29.373 0 36s5.373 12 12 12zm0-15.933c-1.836-3.438-7-2.434-7 1.873 0 2.967 3.25 6 7 10.06 3.75-4.06 7-7.093 7-10.06 0-4.322-5.177-5.285-7-1.873z" fill="#858B99"/><path d="M12 32.067c-1.836-3.438-7-2.434-7 1.873 0 2.967 3.25 6 7 10.06 3.75-4.06 7-7.093 7-10.06 0-4.322-5.177-5.285-7-1.873z" fill="#FFF"/><rect fill-opacity=".2" fill="#446691" filter="url(#f)" x="24" y="168" width="312" height="132" rx="24"/><rect fill="#FFF" x="12" y="156" width="336" height="96" rx="6"/><text font-family="Europa-Bold, Europa" font-size="18" font-weight="bold" fill="#535B6F"><tspan x="36" y="187">Pulmonary Function Test</tspan></text><text font-family="Europa-Regular, Europa" font-size="18" fill="#858B99"><tspan x="36" y="211">Seeing as you are a smoker, you </tspan> <tspan x="36" y="235">should get your lungs checked.</tspan></text><path fill="#FFA69E" d="M12 252h168v36H12z"/><use stroke="#FFA69E" mask="url(#g)" stroke-width="4" fill="#FFF" xlink:href="#b"/><text font-family="Europa-Regular, Europa" font-size="18" fill="#FFF"><tspan x="68.595" y="277">Accept</tspan></text><text font-family="Europa-Regular, Europa" font-size="18" fill="#FFA69E"><tspan x="239" y="277">Ignore</tspan></text><rect fill-opacity=".2" fill="#446691" filter="url(#h)" x="24" y="324" width="312" height="132" rx="24"/><rect fill="#FFF" x="12" y="312" width="336" height="96" rx="6"/><text font-family="Europa-Bold, Europa" font-size="18" font-weight="bold" fill="#535B6F"><tspan x="36" y="343">Dental Appointment</tspan></text><text font-family="Europa-Regular, Europa" font-size="18" fill="#858B99"><tspan x="36" y="367">It’s been a while since you’ve gone to </tspan> <tspan x="36" y="391">the dentist. I would advise you…</tspan></text><path fill="#FFA69E" d="M12 408h168v36H12z"/><use stroke="#FFA69E" mask="url(#i)" stroke-width="4" fill="#FFF" xlink:href="#c"/><text font-family="Europa-Regular, Europa" font-size="18" fill="#FFF"><tspan x="68.595" y="433">Accept</tspan></text><text font-family="Europa-Regular, Europa" font-size="18" fill="#FFA69E"><tspan x="239" y="433">Ignore</tspan></text><path d="M12 360c6.627 0 12-5.373 12-12s-5.373-12-12-12-12 5.373-12 12 5.373 12 12 12zm4.665-12.786s-.498 1.042-.498 2.683c0 1.219-.455 3.813-1.019 4.966-.26.51-1.018.421-1.191-.132-.542-1.93-.932-6.763-1.951-6.741-1.04-.022-1.409 4.811-1.95 6.74-.173.554-.932.643-1.192.133-.585-1.153-1.04-3.747-1.04-4.966 0-1.64-.498-2.683-.498-2.683-.694-1.463-.759-3.06-.716-4.057.044-.577.347-1.286.63-1.618.28-.333.801-.643 1.147-.71a7.233 7.233 0 0 1 1.669.044l1.95.266 1.95-.266a7.047 7.047 0 0 1 1.648-.044c.368.067.888.377 1.17.71.281.332.585 1.041.607 1.618.064.998 0 2.594-.716 4.057zM12 204c6.627 0 12-5.373 12-12s-5.373-12-12-12-12 5.373-12 12 5.373 12 12 12zm7.174-9.834c0-2.755-2.95-7.236-4.763-7.236-.865 0-1.321 1.026-1.555 2.393-.14-.171-.223-.303-.298-.395v-3.512c0-.34-.24-.616-.559-.616-.318 0-.56.276-.56.616v3.591c-.074.16-.167.307-.283.447-.23-1.41-.682-2.477-1.564-2.477-1.814 0-4.766 4.482-4.766 7.236 0 2.755-.344 4.987 1.469 4.987 1.812 0 5.094-2.232 5.094-4.987 0-.972 0-2.158-.078-3.287.278-.207.534-.443.75-.716.168.199.377.42.629.645-.079 1.137-.079 2.332-.079 3.311 0 2.754 3.282 4.988 5.095 4.988 1.81 0 1.468-2.234 1.468-4.988z" fill="#858B99"/></g></svg>