<?xml version="1.0" encoding="UTF-8"?>
<svg width="24px" height="24px" viewBox="0 0 24 24" version="1.1" xmlns="http://www.w3.org/2000/svg" xmlns:xlink="http://www.w3.org/1999/xlink">
    <!-- Generator: Sketch 41.2 (35397) - http://www.bohemiancoding.com/sketch -->
    <title>medium</title>
    <desc>Created with Sketch.</desc>
    <defs></defs>
    <g id="Landing-page" stroke="none" stroke-width="1" fill="none" fill-rule="evenodd">
        <g id="medium">
            <path d="M12,22.8 C17.9646753,22.8 22.8,17.9646753 22.8,12 C22.8,6.0353247 17.9646753,1.2 12,1.2 C6.0353247,1.2 1.2,6.0353247 1.2,12 C1.2,17.9646753 6.0353247,22.8 12,22.8 Z M12,24 C5.372583,24 0,18.627417 0,12 C0,5.372583 5.372583,0 12,0 C18.627417,0 24,5.372583 24,12 C24,18.627417 18.627417,24 12,24 Z" id="Combined-Shape" fill="#FFFFFF"></path>
            <path d="M18.7568358,17.967009 L14.4151642,15.8798328 L14.3824597,6.41838806 C14.3817075,6.19751642 14.6122866,6.05197612 14.8113433,6.14768955 L18.9274507,8.12700896 C19.0310806,8.17683582 19.096991,8.28168358 19.096991,8.39666866 L19.096991,17.7531224 C19.0969552,17.9279642 18.9143761,18.0427701 18.7568358,17.967009 Z" id="Shape" fill="#C3C3C3"></path>
            <path d="M14.4151642,15.8798328 L9.7161791,13.6205373 L14.2399284,6.17258507 C14.3198448,6.04101493 14.486591,5.99154627 14.6253254,6.05824478 L18.7989612,8.06525373 C18.9585075,8.14198209 19.0169313,8.33967761 18.9246925,8.49077015 L14.4151642,15.8798328 Z" id="Shape" fill="#D7D7D7"></path>
            <path d="M14.4151642,15.8798328 L9.7161791,13.6205373 L5.40911045,6.60687761 C5.28911045,6.41147463 5.49791045,6.18010746 5.70456119,6.27947463 L9.7161791,8.20853731 L14.4151642,15.8798328 Z" id="Shape" fill="#EBEBEB"></path>
            <path d="M9.37602388,17.9669731 L5.13447164,15.9273313 C5.05226269,15.8877851 5,15.8046448 5,15.7134448 L5,6.30619701 C5,6.13690746 5.17684776,6.02568358 5.32944478,6.0990806 L9.7161791,8.20853731 L9.7161791,17.7530866 C9.7161791,17.9279284 9.53356418,18.0427343 9.37602388,17.9669731 Z" id="Shape" fill="#FFFFFF"></path>
        </g>
    </g>
</svg>