<svg width="24" height="24" viewBox="0 0 24 24" xmlns="http://www.w3.org/2000/svg"><title>medium</title><g fill="none" fill-rule="evenodd"><path d="M12 22.8c5.965 0 10.8-4.835 10.8-10.8 0-5.965-4.835-10.8-10.8-10.8C6.035 1.2 1.2 6.035 1.2 12c0 5.965 4.835 10.8 10.8 10.8zm0 1.2C5.373 24 0 18.627 0 12S5.373 0 12 0s12 5.373 12 12-5.373 12-12 12z" fill="#FFF"/><path d="M18.757 17.967l-4.342-2.087-.033-9.462a.3.3 0 0 1 .43-.27l4.115 1.979a.3.3 0 0 1 .17.27v9.356c0 .175-.183.29-.34.214z" fill="#C3C3C3"/><path d="M14.415 15.88l-4.699-2.26 4.524-7.447a.3.3 0 0 1 .385-.115L18.8 8.065a.3.3 0 0 1 .126.426l-4.51 7.389z" fill="#D7D7D7"/><path d="M14.415 15.88l-4.699-2.26L5.41 6.608c-.12-.196.089-.427.296-.328l4.011 1.93 4.7 7.67z" fill="#EBEBEB"/><path d="M9.376 17.967l-4.242-2.04A.237.237 0 0 1 5 15.713V6.306c0-.17.177-.28.33-.207l4.386 2.11v9.544c0 .175-.182.29-.34.214z" fill="#FFF"/></g></svg>