<svg width="24" height="24" viewBox="0 0 24 24" xmlns="http://www.w3.org/2000/svg"><title>twitter</title><g fill="#FFF" fill-rule="evenodd"><path d="M12 22.8c5.965 0 10.8-4.835 10.8-10.8 0-5.965-4.835-10.8-10.8-10.8C6.035 1.2 1.2 6.035 1.2 12c0 5.965 4.835 10.8 10.8 10.8zm0 1.2C5.373 24 0 18.627 0 12S5.373 0 12 0s12 5.373 12 12-5.373 12-12 12z"/><path d="M19.2 7.534c-.53.235-1.1.394-1.697.465a2.96 2.96 0 0 0 1.3-1.634 5.918 5.918 0 0 1-1.877.717 2.957 2.957 0 0 0-5.035 2.694 8.387 8.387 0 0 1-6.088-3.087 2.958 2.958 0 0 0 .913 3.945 2.942 2.942 0 0 1-1.337-.37c-.032 1.369.949 2.65 2.37 2.934-.416.113-.872.14-1.335.05a2.957 2.957 0 0 0 2.76 2.052A5.94 5.94 0 0 1 4.8 16.524a8.363 8.363 0 0 0 4.529 1.327c5.485 0 8.584-4.632 8.397-8.787a6.015 6.015 0 0 0 1.474-1.53z"/></g></svg>