<svg width="390" height="488" viewBox="0 0 390 488" xmlns="http://www.w3.org/2000/svg"><title>calendar</title><defs><filter x="-50%" y="-50%" width="200%" height="200%" filterUnits="objectBoundingBox" id="a"><feGaussianBlur stdDeviation="20" in="SourceGraphic"/></filter><filter x="-50%" y="-50%" width="200%" height="200%" filterUnits="objectBoundingBox" id="b"><feGaussianBlur stdDeviation="20" in="SourceGraphic"/></filter><linearGradient x1="50%" y1="0%" x2="50%" y2="100%" id="c"><stop stop-color="#6D768C" offset="0%"/><stop stop-color="#383F51" offset="100%"/></linearGradient><linearGradient x1="50%" y1="0%" x2="50%" y2="100%" id="d"><stop stop-color="#34BCFF" offset="0%"/><stop stop-color="#149CE0" offset="100%"/></linearGradient></defs><g transform="translate(19)" fill="none" fill-rule="evenodd"><rect fill-opacity=".2" fill="#535B6F" filter="url(#a)" x="25" y="288" width="303" height="72" rx="24"/><rect fill-opacity=".2" fill="#535B6F" filter="url(#b)" x="24" y="372" width="303" height="72" rx="24"/><rect fill="url(#c)" x="12" width="336" height="264" rx="6"/><rect fill="#FFF" x="12" y="276" width="336" height="72" rx="6"/><text opacity=".5" font-family="Europa-Regular, Europa" font-size="14" fill="#FFF"><tspan x="83.33" y="50">M</tspan></text><text font-family="Europa-Regular, Europa" font-size="14" fill="#FFF"><tspan x="131.402" y="50">T</tspan></text><text opacity=".5" font-family="Europa-Regular, Europa" font-size="14" fill="#FFF"><tspan x="174.35" y="50">W</tspan></text><text font-family="Europa-Regular, Europa" font-size="14" fill="#FFF"><tspan x="167.003" y="26">2016</tspan></text><g stroke="#FFF" stroke-linecap="round"><path d="M97.086 24.019l8.381-8.536M97.086 23.981l8.381 8.536"/></g><g stroke="#FFF" stroke-linecap="round"><path d="M265.714 24.019l-8.381-8.536M265.714 23.981l-8.381 8.536"/></g><text opacity=".5" font-family="Europa-Regular, Europa" font-size="14" fill="#FFF"><tspan x="223.402" y="50">T</tspan></text><text opacity=".5" font-family="Europa-Regular, Europa" font-size="14" fill="#FFF"><tspan x="269.339" y="50">F</tspan></text><text opacity=".5" font-family="Europa-Regular, Europa" font-size="14" fill="#FFF"><tspan x="39.206" y="50">S</tspan></text><text opacity=".5" font-family="Europa-Regular, Europa" font-size="14" fill="#FFF"><tspan x="315.206" y="50">S</tspan></text><text opacity=".5" font-family="Europa-Regular, Europa" font-size="14" fill="#FFF"><tspan x="35.482" y="98">29</tspan></text><path d="M12.495 71.5H111.5M160.5 71.5h187" stroke="#FFF" stroke-linecap="square" opacity=".5"/><text opacity=".5" font-family="Europa-Regular, Europa" font-size="14" fill="#FFF"><tspan x="81.048" y="98">30</tspan></text><text font-family="Europa-Regular, Europa" font-size="14" fill="#FFF"><tspan x="132.165" y="98">1</tspan></text><text font-family="Europa-Regular, Europa" font-size="14" letter-spacing="1" fill="#FFF"><tspan x="121.882" y="74">DE</tspan> <tspan x="140.836" y="74">C</tspan></text><text font-family="Europa-Regular, Europa" font-size="14" fill="#FFF"><tspan x="177.276" y="98">2</tspan></text><text font-family="Europa-Regular, Europa" font-size="14" fill="#FFF"><tspan x="223.192" y="98">3</tspan></text><text font-family="Europa-Regular, Europa" font-size="14" fill="#FFF"><tspan x="269.066" y="98">4</tspan></text><text font-family="Europa-Regular, Europa" font-size="14" fill="#FFF"><tspan x="314.975" y="98">5</tspan></text><text font-family="Europa-Regular, Europa" font-size="14" fill="#FFF"><tspan x="40.206" y="134">6</tspan></text><text font-family="Europa-Regular, Europa" font-size="14" fill="#FFF"><tspan x="86.458" y="134">7</tspan></text><text font-family="Europa-Regular, Europa" font-size="14" fill="#FFF"><tspan x="132.136" y="134">8</tspan></text><text font-family="Europa-Regular, Europa" font-size="14" fill="#FFF"><tspan x="178.206" y="134">9</tspan></text><text font-family="Europa-Regular, Europa" font-size="14" fill="#FFF"><tspan x="221.021" y="134">10</tspan></text><text font-family="Europa-Regular, Europa" font-size="14" fill="#FFF"><tspan x="268.33" y="134">11</tspan></text><text font-family="Europa-Regular, Europa" font-size="14" fill="#FFF"><tspan x="313.441" y="134">12</tspan></text><text font-family="Europa-Regular, Europa" font-size="14" fill="#FFF"><tspan x="35.132" y="206">20</tspan></text><text font-family="Europa-Regular, Europa" font-size="14" fill="#FFF"><tspan x="82.441" y="206">21</tspan></text><text font-family="Europa-Regular, Europa" font-size="14" fill="#FFF"><tspan x="127.552" y="206">22</tspan></text><text font-family="Europa-Regular, Europa" font-size="14" fill="#FFF"><tspan x="173.468" y="206">23</tspan></text><text font-family="Europa-Regular, Europa" font-size="14" fill="#FFF"><tspan x="219.342" y="206">24</tspan></text><text font-family="Europa-Regular, Europa" font-size="14" fill="#FFF"><tspan x="265.251" y="206">25</tspan></text><text font-family="Europa-Regular, Europa" font-size="14" fill="#FFF"><tspan x="311.482" y="206">26</tspan></text><text font-family="Europa-Regular, Europa" font-size="14" fill="#FFF"><tspan x="35.734" y="242">27</tspan></text><text font-family="Europa-Regular, Europa" font-size="14" fill="#FFF"><tspan x="81.412" y="242">28</tspan></text><text font-family="Europa-Regular, Europa" font-size="14" fill="#FFF"><tspan x="127.482" y="242">29</tspan></text><text font-family="Europa-Regular, Europa" font-size="14" fill="#FFF"><tspan x="173.048" y="242">30</tspan></text><text font-family="Europa-Regular, Europa" font-size="14" fill="#FFF"><tspan x="220.357" y="242">31</tspan></text><text opacity=".5" font-family="Europa-Regular, Europa" font-size="14" fill="#FFF"><tspan x="270.165" y="242">1</tspan></text><text opacity=".5" font-family="Europa-Regular, Europa" font-size="14" fill="#FFF"><tspan x="315.276" y="242">2</tspan></text><text font-family="Europa-Regular, Europa" font-size="14" fill="#FFF"><tspan x="36.357" y="170">13</tspan></text><text font-family="Europa-Bold, Europa" font-size="18" font-weight="bold" fill="#FFF"><tspan x="79.667" y="175">14</tspan></text><text font-family="Europa-Regular, Europa" font-size="14" fill="#FFF"><tspan x="128.14" y="170">15</tspan></text><text font-family="Europa-Regular, Europa" font-size="14" fill="#FFF"><tspan x="220.623" y="170">17</tspan></text><text font-family="Europa-Regular, Europa" font-size="14" fill="#FFF"><tspan x="266.301" y="170">18</tspan></text><text font-family="Europa-Regular, Europa" font-size="14" fill="#FFF"><tspan x="312.371" y="170">19</tspan></text><text font-family="Europa-Bold, Europa" font-size="18" font-weight="bold" fill="#535B6F"><tspan x="36" y="307">Echocardiography</tspan></text><text font-family="Europa-Regular, Europa" font-size="14" fill="#858B99"><tspan x="36" y="326">St. John’s Hospital</tspan></text><circle fill="url(#d)" cx="181" cy="168" r="18"/><text font-family="Europa-Bold, Europa" font-size="14" font-weight="bold" fill="#FFF"><tspan x="173.944" y="170">16</tspan></text><circle fill="#FFF" cx="175" cy="180" r="2"/><circle fill="#FFF" cx="181" cy="180" r="2"/><circle fill="#FFF" cx="187" cy="180" r="2"/><circle fill="#F0E2A7" cx="178" cy="216" r="2"/><circle fill="#F0E2A7" cx="89" cy="216" r="2"/><circle fill="#53DD6C" cx="43" cy="180" r="2"/><circle fill="#ED6A5A" cx="87" cy="144" r="2"/><circle fill="#53DD6C" cx="93" cy="144" r="2"/><circle fill="#53DD6C" cx="135" cy="108" r="2"/><circle fill="#F0E2A7" cx="184" cy="216" r="2"/><circle fill="#F0E2A7" opacity=".5" cx="316" cy="252" r="2"/><circle fill="#F0E2A7" opacity=".5" cx="322" cy="252" r="2"/><circle fill="#ED6A5A" cx="270" cy="108" r="2"/><circle fill="#ED6A5A" cx="276" cy="108" r="2"/><circle fill="#53DD6C" cx="320" cy="144" r="2"/><circle fill="#F0E2A7" cx="86" cy="180" r="2"/><circle fill="#F0E2A7" cx="92" cy="180" r="2"/><circle fill="#F0E2A7" cx="147" cy="252" r="2"/><circle fill="#F0E2A7" cx="153" cy="252" r="2"/><circle fill="#F0E2A7" cx="159" cy="252" r="2"/><rect fill="#FFF" x="12" y="360" width="336" height="72" rx="6"/><text font-family="Europa-Bold, Europa" font-size="18" font-weight="bold" fill="#535B6F"><tspan x="36" y="391">Pulmonary Function Test</tspan></text><text font-family="Europa-Regular, Europa" font-size="14" fill="#858B99"><tspan x="36" y="410">St. John’s Hospital</tspan></text><circle fill="#53DD6C" cx="12" cy="396" r="12"/><text font-family="Europa-Regular, Europa" font-size="14" fill="#858B99"><tspan x="279.51" y="410">01:00 PM</tspan></text><text font-family="Europa-Regular, Europa" font-size="14" fill="#858B99"><tspan x="279.51" y="326">01:00 PM</tspan></text><path d="M12 324c6.627 0 12-5.373 12-12s-5.373-12-12-12-12 5.373-12 12 5.373 12 12 12zm0-15.933c-1.836-3.438-7-2.434-7 1.873 0 2.967 3.25 6 7 10.06 3.75-4.06 7-7.093 7-10.06 0-4.322-5.177-5.285-7-1.873z" fill="#ED6A5A"/><path d="M12 308.067c-1.836-3.438-7-2.434-7 1.873 0 2.967 3.25 6 7 10.06 3.75-4.06 7-7.093 7-10.06 0-4.322-5.177-5.285-7-1.873z" fill="#FFF"/></g></svg>