<svg width="398" height="460" viewBox="0 0 398 460" xmlns="http://www.w3.org/2000/svg"><title>medication</title><defs><filter x="-50%" y="-50%" width="200%" height="200%" filterUnits="objectBoundingBox" id="a"><feGaussianBlur stdDeviation="20" in="SourceGraphic"/></filter><filter x="-50%" y="-50%" width="200%" height="200%" filterUnits="objectBoundingBox" id="b"><feGaussianBlur stdDeviation="20" in="SourceGraphic"/></filter><filter x="-50%" y="-50%" width="200%" height="200%" filterUnits="objectBoundingBox" id="c"><feGaussianBlur stdDeviation="20" in="SourceGraphic"/></filter><filter x="-50%" y="-50%" width="200%" height="200%" filterUnits="objectBoundingBox" id="d"><feGaussianBlur stdDeviation="20" in="SourceGraphic"/></filter></defs><g transform="translate(19 -4)" fill="none" fill-rule="evenodd"><rect fill-opacity=".2" fill="#535B6F" filter="url(#a)" x="24" y="48" width="312" height="72" rx="24"/><rect fill-opacity=".2" fill="#535B6F" filter="url(#b)" x="24" y="132" width="312" height="72" rx="24"/><rect fill="#FFF" x="12" y="36" width="336" height="72" rx="6"/><text font-family="Europa-Bold, Europa" font-size="18" font-weight="bold" fill="#535B6F"><tspan x="36" y="67">Ranexa</tspan></text><text font-family="Europa-Regular, Europa" font-size="14" fill="#858B99"><tspan x="36" y="86">Bi-daily, 10:00 AM - 08:00PM </tspan></text><rect fill="#FFF" x="12" y="120" width="336" height="72" rx="6"/><text font-family="Europa-Bold, Europa" font-size="18" font-weight="bold" fill="#535B6F"><tspan x="36" y="151">Singulair</tspan></text><text font-family="Europa-Regular, Europa" font-size="14" fill="#858B99"><tspan x="36" y="170">Daily, 09:00 PM</tspan></text><text font-family="Europa-Regular, Europa" font-size="18" fill="#535B6F"><tspan x="280.416" y="67">500mg</tspan></text><text font-family="Europa-Regular, Europa" font-size="18" fill="#535B6F"><tspan x="294.132" y="151">10mg</tspan></text><path d="M12 84c6.627 0 12-5.373 12-12s-5.373-12-12-12S0 65.373 0 72s5.373 12 12 12zm0-15.933c-1.836-3.438-7-2.434-7 1.873 0 2.967 3.25 6 7 10.06 3.75-4.06 7-7.093 7-10.06 0-4.322-5.177-5.285-7-1.873z" fill="#F0E2A7"/><path d="M12 68.067c-1.836-3.438-7-2.434-7 1.873 0 2.967 3.25 6 7 10.06 3.75-4.06 7-7.093 7-10.06 0-4.322-5.177-5.285-7-1.873z" fill="#FFF"/><rect fill-opacity=".2" fill="#535B6F" filter="url(#c)" x="24" y="348" width="312" height="72" rx="24"/><rect fill="#FFF" x="12" y="336" width="336" height="72" rx="6"/><text font-family="Europa-Bold, Europa" font-size="18" font-weight="bold" fill="#535B6F"><tspan x="36" y="367">Ranexa</tspan></text><text font-family="Europa-Regular, Europa" font-size="14" fill="#858B99"><tspan x="36" y="386">Bi-daily, 10:00 AM - 08:00PM </tspan></text><text font-family="Europa-Regular, Europa" font-size="18" fill="#535B6F"><tspan x="280.416" y="367">500mg</tspan></text><path d="M12 384c6.627 0 12-5.373 12-12s-5.373-12-12-12-12 5.373-12 12 5.373 12 12 12zm0-15.933c-1.836-3.438-7-2.434-7 1.873 0 2.967 3.25 6 7 10.06 3.75-4.06 7-7.093 7-10.06 0-4.322-5.177-5.285-7-1.873z" fill="#F0E2A7"/><path d="M12 368.067c-1.836-3.438-7-2.434-7 1.873 0 2.967 3.25 6 7 10.06 3.75-4.06 7-7.093 7-10.06 0-4.322-5.177-5.285-7-1.873z" fill="#FFF"/><path d="M12 168c6.627 0 12-5.373 12-12s-5.373-12-12-12-12 5.373-12 12 5.373 12 12 12zm0-15.933c-1.836-3.438-7-2.434-7 1.873 0 2.967 3.25 6 7 10.06 3.75-4.06 7-7.093 7-10.06 0-4.322-5.177-5.285-7-1.873z" fill="#F0E2A7"/><path d="M12 152.067c-1.836-3.438-7-2.434-7 1.873 0 2.967 3.25 6 7 10.06 3.75-4.06 7-7.093 7-10.06 0-4.322-5.177-5.285-7-1.873z" fill="#FFF"/><rect fill-opacity=".2" fill="#535B6F" filter="url(#d)" x="24" y="216" width="312" height="72" rx="24"/><rect fill="#FFF" x="12" y="204" width="336" height="72" rx="6"/><text font-family="Europa-Bold, Europa" font-size="18" font-weight="bold" fill="#535B6F"><tspan x="36" y="235">Singulair</tspan></text><text font-family="Europa-Regular, Europa" font-size="14" fill="#858B99"><tspan x="36" y="254">Daily, 09:00 PM</tspan></text><text font-family="Europa-Regular, Europa" font-size="18" fill="#535B6F"><tspan x="294.132" y="235">10mg</tspan></text><g><path d="M12 252c6.627 0 12-5.373 12-12s-5.373-12-12-12-12 5.373-12 12 5.373 12 12 12zm0-15.933c-1.836-3.438-7-2.434-7 1.873 0 2.967 3.25 6 7 10.06 3.75-4.06 7-7.093 7-10.06 0-4.322-5.177-5.285-7-1.873z" fill="#F0E2A7"/><path d="M12 236.067c-1.836-3.438-7-2.434-7 1.873 0 2.967 3.25 6 7 10.06 3.75-4.06 7-7.093 7-10.06 0-4.322-5.177-5.285-7-1.873z" fill="#FFF"/></g><text font-family="Europa-Regular, Europa" font-size="18" fill="#858B99"><tspan x="12" y="19">For Your Medical Condition</tspan></text><text font-family="Europa-Regular, Europa" font-size="18" fill="#858B99"><tspan x="12" y="319">For General Medication</tspan></text></g></svg>