<?xml version="1.0" encoding="UTF-8"?>
<svg width="400px" height="532px" viewBox="0 0 400 532" version="1.1" xmlns="http://www.w3.org/2000/svg" xmlns:xlink="http://www.w3.org/1999/xlink">
    <!-- Generator: Sketch 41.2 (35397) - http://www.bohemiancoding.com/sketch -->
    <title>recommended</title>
    <desc>Created with Sketch.</desc>
    <defs>
        <filter x="-50%" y="-50%" width="200%" height="200%" filterUnits="objectBoundingBox" id="filter-1">
            <feGaussianBlur stdDeviation="20" in="SourceGraphic"></feGaussianBlur>
        </filter>
        <rect id="path-2" x="180" y="96" width="168" height="36"></rect>
        <mask id="mask-3" maskContentUnits="userSpaceOnUse" maskUnits="objectBoundingBox" x="0" y="0" width="168" height="36" fill="white">
            <use xlink:href="#path-2"></use>
        </mask>
        <filter x="-50%" y="-50%" width="200%" height="200%" filterUnits="objectBoundingBox" id="filter-4">
            <feGaussianBlur stdDeviation="20" in="SourceGraphic"></feGaussianBlur>
        </filter>
        <rect id="path-5" x="180" y="252" width="168" height="36"></rect>
        <mask id="mask-6" maskContentUnits="userSpaceOnUse" maskUnits="objectBoundingBox" x="0" y="0" width="168" height="36" fill="white">
            <use xlink:href="#path-5"></use>
        </mask>
        <filter x="-50%" y="-50%" width="200%" height="200%" filterUnits="objectBoundingBox" id="filter-7">
            <feGaussianBlur stdDeviation="20" in="SourceGraphic"></feGaussianBlur>
        </filter>
        <rect id="path-8" x="180" y="408" width="168" height="36"></rect>
        <mask id="mask-9" maskContentUnits="userSpaceOnUse" maskUnits="objectBoundingBox" x="0" y="0" width="168" height="36" fill="white">
            <use xlink:href="#path-8"></use>
        </mask>
    </defs>
    <g id="Landing-page" stroke="none" stroke-width="1" fill="none" fill-rule="evenodd">
        <g id="Desktop-HD" transform="translate(-250.000000, -676.000000)">
            <g id="recommended" transform="translate(270.000000, 708.000000)">
                <rect id="Rectangle" fill-opacity="0.2" fill="#446691" filter="url(#filter-1)" x="24" y="12" width="312" height="132" rx="24"></rect>
                <rect id="Rectangle" fill="#FFFFFF" x="12" y="0" width="336" height="96" rx="6"></rect>
                <text id="Pulmonary-Function-T" font-family="Europa-Bold, Europa" font-size="18" font-weight="bold" line-spacing="24" fill="#535B6F">
                    <tspan x="36" y="31">Pulmonary Function Test</tspan>
                </text>
                <text id="We-can-see-that-you" font-family="Europa-Regular, Europa" font-size="18" font-weight="normal" line-spacing="24" fill="#858B99">
                    <tspan x="36" y="55">We can see that you are a smoker. </tspan>
                    <tspan x="36" y="79">Surely you don’t need another...</tspan>
                </text>
                <rect id="Rectangle-8" fill="#FFA69E" x="12" y="96" width="168" height="36"></rect>
                <use id="Rectangle-8" stroke="#FFA69E" mask="url(#mask-3)" stroke-width="4" fill="#FFFFFF" xlink:href="#path-2"></use>
                <text id="Accept" font-family="Europa-Regular, Europa" font-size="18" font-weight="normal" line-spacing="24" fill="#FFFFFF">
                    <tspan x="68.595" y="121">Accept</tspan>
                </text>
                <text id="Ignore" font-family="Europa-Regular, Europa" font-size="18" font-weight="normal" line-spacing="24" fill="#FFA69E">
                    <tspan x="239" y="121">Ignore</tspan>
                </text>
                <g id="Group-3" transform="translate(0.000000, 24.000000)">
                    <path d="M12,24 C18.627417,24 24,18.627417 24,12 C24,5.372583 18.627417,0 12,0 C5.372583,0 0,5.372583 0,12 C0,18.627417 5.372583,24 12,24 Z M11.9999484,8.06699697 C10.1636286,4.62938592 5,5.63292399 5,9.94043772 C5,12.9065068 8.24972607,15.9393935 11.9999484,20 C15.7507542,15.9393935 18.9998969,12.9065068 18.9998969,9.94043772 C18.9998969,5.61828773 13.8228517,4.65484028 11.9999484,8.06699697 Z" id="Combined-Shape" fill="#858B99"></path>
                    <path d="M11.9999484,8.06699697 C10.1636286,4.62938592 5,5.63292399 5,9.94043772 C5,12.9065068 8.24972607,15.9393935 11.9999484,20 C15.7507542,15.9393935 18.9998969,12.9065068 18.9998969,9.94043772 C18.9998969,5.61828773 13.8228517,4.65484028 11.9999484,8.06699697 Z" id="Shape" fill="#FFFFFF"></path>
                </g>
                <rect id="Rectangle" fill-opacity="0.2" fill="#446691" filter="url(#filter-4)" x="24" y="168" width="312" height="132" rx="24"></rect>
                <rect id="Rectangle" fill="#FFFFFF" x="12" y="156" width="336" height="96" rx="6"></rect>
                <text id="Pulmonary-Function-T" font-family="Europa-Bold, Europa" font-size="18" font-weight="bold" line-spacing="24" fill="#535B6F">
                    <tspan x="36" y="187">Pulmonary Function Test</tspan>
                </text>
                <text id="We-can-see-that-you" font-family="Europa-Regular, Europa" font-size="18" font-weight="normal" line-spacing="24" fill="#858B99">
                    <tspan x="36" y="211">We can see that you are a smoker. </tspan>
                    <tspan x="36" y="235">Surely you don’t need another...</tspan>
                </text>
                <rect id="Rectangle-8" fill="#FFA69E" x="12" y="252" width="168" height="36"></rect>
                <use id="Rectangle-8" stroke="#FFA69E" mask="url(#mask-6)" stroke-width="4" fill="#FFFFFF" xlink:href="#path-5"></use>
                <text id="Accept" font-family="Europa-Regular, Europa" font-size="18" font-weight="normal" line-spacing="24" fill="#FFFFFF">
                    <tspan x="68.595" y="277">Accept</tspan>
                </text>
                <text id="Ignore" font-family="Europa-Regular, Europa" font-size="18" font-weight="normal" line-spacing="24" fill="#FFA69E">
                    <tspan x="239" y="277">Ignore</tspan>
                </text>
                <g id="Group-3" transform="translate(0.000000, 180.000000)">
                    <path d="M12,24 C18.627417,24 24,18.627417 24,12 C24,5.372583 18.627417,0 12,0 C5.372583,0 0,5.372583 0,12 C0,18.627417 5.372583,24 12,24 Z M11.9999484,8.06699697 C10.1636286,4.62938592 5,5.63292399 5,9.94043772 C5,12.9065068 8.24972607,15.9393935 11.9999484,20 C15.7507542,15.9393935 18.9998969,12.9065068 18.9998969,9.94043772 C18.9998969,5.61828773 13.8228517,4.65484028 11.9999484,8.06699697 Z" id="Combined-Shape" fill="#858B99"></path>
                    <path d="M11.9999484,8.06699697 C10.1636286,4.62938592 5,5.63292399 5,9.94043772 C5,12.9065068 8.24972607,15.9393935 11.9999484,20 C15.7507542,15.9393935 18.9998969,12.9065068 18.9998969,9.94043772 C18.9998969,5.61828773 13.8228517,4.65484028 11.9999484,8.06699697 Z" id="Shape" fill="#FFFFFF"></path>
                </g>
                <rect id="Rectangle" fill-opacity="0.2" fill="#446691" filter="url(#filter-7)" x="24" y="324" width="312" height="132" rx="24"></rect>
                <rect id="Rectangle" fill="#FFFFFF" x="12" y="312" width="336" height="96" rx="6"></rect>
                <text id="Pulmonary-Function-T" font-family="Europa-Bold, Europa" font-size="18" font-weight="bold" line-spacing="24" fill="#535B6F">
                    <tspan x="36" y="343">Pulmonary Function Test</tspan>
                </text>
                <text id="We-can-see-that-you" font-family="Europa-Regular, Europa" font-size="18" font-weight="normal" line-spacing="24" fill="#858B99">
                    <tspan x="36" y="367">We can see that you are a smoker. </tspan>
                    <tspan x="36" y="391">Surely you don’t need another...</tspan>
                </text>
                <rect id="Rectangle-8" fill="#FFA69E" x="12" y="408" width="168" height="36"></rect>
                <use id="Rectangle-8" stroke="#FFA69E" mask="url(#mask-9)" stroke-width="4" fill="#FFFFFF" xlink:href="#path-8"></use>
                <text id="Accept" font-family="Europa-Regular, Europa" font-size="18" font-weight="normal" line-spacing="24" fill="#FFFFFF">
                    <tspan x="68.595" y="433">Accept</tspan>
                </text>
                <text id="Ignore" font-family="Europa-Regular, Europa" font-size="18" font-weight="normal" line-spacing="24" fill="#FFA69E">
                    <tspan x="239" y="433">Ignore</tspan>
                </text>
                <g id="Group-3" transform="translate(0.000000, 336.000000)">
                    <path d="M12,24 C18.627417,24 24,18.627417 24,12 C24,5.372583 18.627417,0 12,0 C5.372583,0 0,5.372583 0,12 C0,18.627417 5.372583,24 12,24 Z M11.9999484,8.06699697 C10.1636286,4.62938592 5,5.63292399 5,9.94043772 C5,12.9065068 8.24972607,15.9393935 11.9999484,20 C15.7507542,15.9393935 18.9998969,12.9065068 18.9998969,9.94043772 C18.9998969,5.61828773 13.8228517,4.65484028 11.9999484,8.06699697 Z" id="Combined-Shape" fill="#858B99"></path>
                    <path d="M11.9999484,8.06699697 C10.1636286,4.62938592 5,5.63292399 5,9.94043772 C5,12.9065068 8.24972607,15.9393935 11.9999484,20 C15.7507542,15.9393935 18.9998969,12.9065068 18.9998969,9.94043772 C18.9998969,5.61828773 13.8228517,4.65484028 11.9999484,8.06699697 Z" id="Shape" fill="#FFFFFF"></path>
                </g>
            </g>
        </g>
    </g>
</svg>